# xmcd
#
# Track frame offsets: 
#        150
#        18143
#        36027
#        52995
#        71296
#        88373
#        104999
#        124162
#        142943
#        160119
#        177780
#        201140
#        218455
#        237197
#        252470
#        270146
#
# Disc length: 3821 seconds
#
# Revision: 0
# Processed by: cddbd v1.5.2PL0 Copyright (c) Steve Scherf et al.
# Submitted via: ExactAudioCopy v0.95b4
#
DISCID=d40eeb10
DTITLE=ศักดิ์ ภูเวียง - รวมฮิต ตลับเพชร
DYEAR=2007
DGENRE=Country
TTITLE0=คิดฮอดสิอดเอา
TTITLE1=อยากมีคนคิดฮอด
TTITLE2=กลับมาอยู่บ้านเฮา
TTITLE3=หูเบาให้เขาลวง
TTITLE4=อย่ามาลูบหลัง
TTITLE5=จดหมายบอกลา
TTITLE6=ห้องนอนสะท้อนใจ
TTITLE7=ศักดิ์ ภูเวียง วอนแฟน
TTITLE8=คิดนำเมียเผิ่น
TTITLE9=เลิกเหล้าเข้าวัด
TTITLE10=วันงานประหารใจ
TTITLE11=ฮักแม่ฮ้างใหม่
TTITLE12=พอกอสอ
TTITLE13=มือสองของชอบ
TTITLE14=ขายเสียงเลี้ยงแม่
TTITLE15=มีแฟนแล้วบ่
EXTD=
EXTT0=
EXTT1=
EXTT2=
EXTT3=
EXTT4=
EXTT5=
EXTT6=
EXTT7=
EXTT8=
EXTT9=
EXTT10=
EXTT11=
EXTT12=
EXTT13=
EXTT14=
EXTT15=
PLAYORDER=
